HIERARCHY
ROOT Hips
{
  OFFSET 3.25194 98.3306 -19.0826
  CHANNELS 6 Xposition Yposition Zposition Zrotation Xrotation Yrotation
  JOINT RightUpLeg
  {
    OFFSET -8.9458 -8.66707 0.101652
    CHANNELS 3 Zrotation Xrotation Yrotation
    JOINT RightLeg
    {
      OFFSET 0 -44.4227 1.3727
      CHANNELS 3 Zrotation Xrotation Yrotation
      JOINT RightFoot
      {
        OFFSET 0.253549 -42.0924 -1.46059
        CHANNELS 3 Zrotation Xrotation Yrotation
        JOINT RightToes
        {
          OFFSET 0.04 -4.41509 8.4991
          CHANNELS 3 Zrotation Xrotation Yrotation
          End Site
          {
            OFFSET -0.08 -0.137448 9.77979
          }
        }
      }
    }
  }
  JOINT Spine
  {
    OFFSET 0 11.8905 0
    CHANNELS 3 Zrotation Xrotation Yrotation
    JOINT Spine1
    {
      OFFSET 0 25.6574 0.127663
      CHANNELS 3 Zrotation Xrotation Yrotation
      JOINT HEad
      {
        OFFSET 0 8.73416 0.011341
        CHANNELS 3 Zrotation Xrotation Yrotation
        End Site
        {
          OFFSET -0.29 12.7742 2.51395
        }
      }
      JOINT LeftShoulder1
      {
        OFFSET 8.99 -0.362252 -0.22
        CHANNELS 3 Zrotation Xrotation Yrotation
        JOINT LeftArm
        {
          OFFSET 10.2827 -0.00337999 0.322123
          CHANNELS 3 Zrotation Xrotation Yrotation
          JOINT LeftForeArm
          {
            OFFSET 26.2597 0.099144 -1.42434
            CHANNELS 3 Zrotation Xrotation Yrotation
            JOINT LeftHand
            {
              OFFSET 22.0902 0.085362 1.02216
              CHANNELS 3 Zrotation Xrotation Yrotation
              End Site
              {
                OFFSET 13.419 -0.6 1.50291
              }
            }
          }
        }
      }
      JOINT RightShoulder
      {
        OFFSET -8.99 -0.362252 -0.22
        CHANNELS 3 Zrotation Xrotation Yrotation
        JOINT RightArm
        {
          OFFSET -10.2827 -0.00338 0.322123
          CHANNELS 3 Zrotation Xrotation Yrotation
          JOINT RightForeArm
          {
            OFFSET -26.364 0.099144 -1.42434
            CHANNELS 3 Zrotation Xrotation Yrotation
            JOINT RightHand
            {
              OFFSET -22.0324 0.085362 1.02216
              CHANNELS 3 Zrotation Xrotation Yrotation
              End Site
              {
                OFFSET -13.3284 -0.6 1.50291
              }
            }
          }
        }
      }
    }
  }
  JOINT LeftUpLeg
  {
    OFFSET 8.9458 -8.66707 0.101652
    CHANNELS 3 Zrotation Xrotation Yrotation
    JOINT LeftLeg
    {
      OFFSET 0 -44.4227 1.3727
      CHANNELS 3 Zrotation Xrotation Yrotation
      JOINT LeftFoot
      {
        OFFSET -0.253549 -42.0924 -1.46059
        CHANNELS 3 Zrotation Xrotation Yrotation
        JOINT LeftToes
        {
          OFFSET -0.04 -4.41509 8.4991
          CHANNELS 3 Zrotation Xrotation Yrotation
          End Site
          {
            OFFSET 0.08 -0.047448 9.77979
          }
        }
      }
    }
  }
}
MOTION
Frames:	8
Frame Time:	0.0166667
3.25194 98.3306 -19.0826 0 0 -0 0.877073 0.210231 0.000170345 0.00697032 -0.551485 -0.0300207 -0.87621 0.340758 0.0350609 1.13114e-018 4.7394e-023 -0 0 0 -0 0 0 -0 0 0 -0 0 0 -0 0.000931199 0.00082065 0.00229282 -0.000944678 -0.000824028 -0.00245227 -0.00848381 3.41511e-006 0.000159442 0 0 -0 -0.00103128 0.000828439 -0.00243066 0.00105362 -0.00082758 0.00258649 -2.23048e-005 -8.13721e-007 -0.000155813 -0.873595 -2.65785 0.00823643 0.00242495 5.34353 0.0261371 0.871286 -2.6859 0.00637982 -2.31476e-024 -9.47879e-023 -0 
3.30233 98.2124 -19.7761 -1.41595 0.849099 0.626769 2.63612 0.397074 0.875524 -0.0072921 6.66116 0.125445 -1.56613 -5.3709 -6.50388 -1.49089e-016 0 7.95139e-016 1.63137 0.664738 -0.902084 1.55707 -2.99756 -0.170784 1.23676 -0.0902717 -8.55595 -9.00743e-017 0 9.93923e-017 -43.4209 12.7039 2.27903 7.93222 -3.84522 -12.8834 -0.00826064 0.302589 -0.0422584 -9.00743e-017 0 9.93923e-017 40.0213 9.92657 -1.72182 -6.30276 -2.73256 10.4151 0.0006206 2.24338 0.314942 1.68317 -2.80352 0.356206 0.0083948 12.6125 -0.105227 0.864522 -8.25727 0.335032 1.80149e-016 1.19271e-015 -0 
3.36597 98.0942 -20.4714 -2.90156 1.69789 1.25395 4.38674 0.657484 1.79084 -0.0617042 13.8737 0.287607 -3.56979 -10.863 -13.2267 1.98785e-016 -7.95139e-016 1.59028e-015 3.38672 1.32898 -1.80453 3.09618 -5.99549 -0.342976 2.7231 -0.174493 -17.112 3.60297e-016 -3.97569e-016 -0 -87.9683 25.3431 4.96218 14.1841 -7.10276 -25.9188 -0.00708415 0.756833 -0.105964 3.60297e-016 -3.97569e-016 -0 80.7933 20.0889 -3.69641 -11.6976 -5.23757 21.0191 -0.0234804 4.48655 0.631492 4.24776 -2.94904 0.765375 0.046571 19.9533 -0.246865 0.952277 -13.8688 0.815806 3.97569e-016 -7.95139e-016 -0 
3.38009 98.0975 -20.4727 -2.95058 1.66207 1.1186 4.38022 0.765709 1.83007 -0.0611244 13.8164 0.286348 -3.53649 -10.8425 -13.0899 2.98177e-016 -7.95139e-016 -0 3.50156 1.32345 -1.71346 3.04819 -5.99581 -0.319699 3.04792 -0.167874 -16.9161 2.73329e-016 -7.95139e-016 1.98785e-016 -87.9758 25.2694 5.00099 14.1757 -7.09587 -25.9019 -0.00573103 1.06088 -0.14868 2.73329e-016 -7.95139e-016 1.98785e-016 80.9016 20.3701 -3.76764 -11.7602 -5.28064 21.1396 -0.0205706 4.22341 0.594279 4.25245 -2.90633 0.826146 0.0429348 20.0289 -0.247788 0.99514 -13.9162 1.01367 6.95746e-016 7.95139e-016 3.97569e-016 
3.38365 98.1019 -20.4739 -2.9584 1.61199 0.920564 4.3763 0.800184 1.84409 -0.0605325 13.7563 0.285085 -3.48857 -10.8107 -12.8951 -1.98785e-016 7.95139e-016 -0 3.51852 1.31793 -1.57696 2.97475 -5.99613 -0.283853 3.10392 -0.13674 -16.7201 1.2424e-016 0 -0 -87.9519 25.1964 5.01437 14.1493 -7.07438 -25.8488 -0.00488183 1.21327 -0.170113 1.2424e-016 0 -0 80.9546 20.4408 -3.82095 -11.7847 -5.29754 21.1867 -0.0180035 3.96026 0.557104 4.25449 -2.85839 0.846787 0.0424596 20.0493 -0.247936 1.0198 -13.9226 1.12154 5.71506e-016 7.95139e-016 7.95139e-016 
3.38695 98.1026 -20.4908 -2.97412 1.59806 0.823339 4.38351 0.78456 1.88372 -0.0605158 13.7529 0.285084 -3.46823 -10.7851 -12.8242 0 7.95139e-016 -0 3.52432 1.33325 -1.49801 2.92744 -6.12491 -0.260248 3.05793 -0.0455579 -16.7271 -7.45443e-017 0 1.98785e-016 -87.882 25.2983 5.0541 14.0858 -7.02282 -25.7206 -0.00548149 1.1078 -0.15529 -7.45443e-017 0 1.98785e-016 81.1533 20.5049 -4.09813 -11.8635 -5.35221 21.3386 -0.0180492 3.97924 0.559783 4.2662 -2.85484 0.900476 0.0426045 20.0766 -0.247971 1.03178 -13.9153 1.1758 5.96354e-016 7.95139e-016 3.97569e-016 
3.38755 98.1033 -20.5199 -2.9789 1.58396 0.752387 4.39094 0.768944 1.90863 -0.0605149 13.7525 0.285089 -3.45175 -10.7729 -12.7614 5.96354e-016 7.95139e-016 -3.18055e-015 3.52483 1.36554 -1.44115 2.89138 -6.25324 -0.242543 2.96504 0.0211213 -16.741 -7.45443e-017 -7.95139e-016 -0 -87.8398 25.3996 5.11049 14.0402 -6.98578 -25.6286 -0.00602657 1.00234 -0.140468 -7.45443e-017 -7.95139e-016 -0 81.3174 20.5154 -4.29987 -11.915 -5.388 21.4382 -0.0196025 4.09841 0.57661 4.2744 -2.85131 0.933181 0.0427084 20.0872 -0.247967 1.03892 -13.9033 1.21196 2.23633e-016 7.95139e-016 1.19271e-015 
3.38211 98.1086 -20.5526 -2.9183 1.53313 0.672591 4.28472 0.816021 1.8452 -0.0605442 13.7577 0.285106 -3.42049 -10.7983 -12.6024 -5.96354e-016 1.59028e-015 1.59028e-015 3.47614 1.39863 -1.40401 2.86855 -6.23413 -0.233267 2.85711 -0.0555841 -16.7516 -3.47873e-016 7.95139e-016 3.97569e-016 -87.8957 25.3183 5.21993 14.0663 -7.00693 -25.6812 -0.00529574 1.14146 -0.160037 -3.47873e-016 7.95139e-016 3.97569e-016 81.3402 20.4415 -4.28241 -11.862 -5.35111 21.3357 -0.0265952 4.48016 0.630571 4.17448 -2.76889 0.928962 0.0426816 20.0622 -0.247895 1.05622 -13.8966 1.30808 7.45443e-017 2.38542e-015 -3.97569e-016 
